<svg width="20" height="21" viewBox="0 0 20 21" fill="none" xmlns="http://www.w3.org/2000/svg">
<path d="M8 19.3333H12M10 0V2.66667M0 10H2.66667M17.3333 10H20M4 5.33333L2 3.33333M16 5.33333L18 3.33333M5.4343 8.62646L5.42089 8.72027C5.23527 10.0196 5.60633 11.2552 6.34065 12.2039C6.87036 12.8883 7.33333 13.6697 7.33333 14.5351V16.6667H12.6667V14.5351C12.6667 13.6696 13.1296 12.8882 13.6593 12.2039C14.3936 11.2551 14.7647 10.0196 14.5791 8.72027L14.5657 8.62646C14.2411 6.35435 12.2952 4.66667 9.99998 4.66667C7.7048 4.66667 5.75888 6.35434 5.4343 8.62646Z" stroke="#878787" stroke-width="2" stroke-linejoin="round"/>
</svg>
