<svg width="19" height="14" viewBox="0 0 19 14" fill="none" xmlns="http://www.w3.org/2000/svg">
<path d="M1 7L0.536526 6.81241C0.487825 6.93273 0.487825 7.06727 0.536526 7.1876L1 7ZM18 7L18.4635 7.1876C18.5122 7.06727 18.5122 6.93273 18.4635 6.8124L18 7ZM9.49998 12.5C6.64795 12.5 4.64761 11.096 3.34288 9.66334C2.69001 8.94646 2.21726 8.22798 1.90808 7.68878C1.75377 7.41967 1.64097 7.19657 1.56749 7.04253C1.53077 6.96555 1.50392 6.90594 1.48667 6.86659C1.47804 6.84692 1.47182 6.83233 1.46797 6.82317C1.46604 6.8186 1.4647 6.81538 1.46396 6.81357C1.46358 6.81266 1.46336 6.81211 1.46328 6.81191C1.46324 6.81182 1.46323 6.81181 1.46326 6.81189C1.46328 6.81193 1.46333 6.81206 1.46334 6.81208C1.4634 6.81223 1.46347 6.81241 1 7C0.536526 7.1876 0.536615 7.18782 0.536714 7.18806C0.536759 7.18817 0.536867 7.18844 0.536958 7.18866C0.537139 7.18911 0.537358 7.18964 0.537615 7.19027C0.538129 7.19153 0.538794 7.19315 0.539611 7.19513C0.541245 7.19909 0.543486 7.20448 0.546339 7.21125C0.552044 7.2248 0.5602 7.2439 0.570844 7.26817C0.592129 7.31671 0.623387 7.38601 0.664928 7.47309C0.747974 7.64718 0.872346 7.89283 1.04058 8.18622C1.37648 8.77202 1.89033 9.55354 2.60353 10.3367C4.03093 11.904 6.28058 13.5 9.49998 13.5V12.5ZM1 7C1.46347 7.1876 1.4634 7.18777 1.46334 7.18792C1.46333 7.18794 1.46328 7.18807 1.46326 7.18811C1.46323 7.18819 1.46324 7.18818 1.46328 7.18809C1.46336 7.18789 1.46358 7.18734 1.46396 7.18643C1.4647 7.18462 1.46604 7.1814 1.46797 7.17683C1.47182 7.16767 1.47804 7.15308 1.48667 7.13341C1.50392 7.09406 1.53077 7.03445 1.56749 6.95747C1.64097 6.80343 1.75377 6.58033 1.90808 6.31122C2.21726 5.77202 2.69001 5.05354 3.34288 4.33666C4.64761 2.90401 6.64795 1.5 9.49998 1.5V0.5C6.28058 0.5 4.03093 2.09599 2.60353 3.66334C1.89033 4.44646 1.37648 5.22798 1.04058 5.81378C0.872346 6.10717 0.747974 6.35282 0.664928 6.52691C0.623387 6.61399 0.592129 6.68329 0.570844 6.73183C0.5602 6.7561 0.552044 6.7752 0.546339 6.78875C0.543486 6.79552 0.541245 6.80091 0.539611 6.80487C0.538794 6.80685 0.538129 6.80847 0.537615 6.80973C0.537358 6.81036 0.537139 6.8109 0.536958 6.81134C0.536867 6.81156 0.536759 6.81183 0.536714 6.81194C0.536615 6.81219 0.536526 6.81241 1 7ZM9.49998 1.5C12.352 1.5 14.3524 2.90401 15.6571 4.33667C16.31 5.05354 16.7827 5.77202 17.0919 6.31122C17.2462 6.58033 17.359 6.80343 17.4325 6.95747C17.4692 7.03445 17.4961 7.09406 17.5133 7.13341C17.522 7.15308 17.5282 7.16767 17.532 7.17683C17.534 7.18141 17.5353 7.18462 17.536 7.18643C17.5364 7.18734 17.5366 7.18789 17.5367 7.18809C17.5368 7.18819 17.5368 7.18819 17.5367 7.18811C17.5367 7.18807 17.5367 7.18794 17.5367 7.18792C17.5366 7.18777 17.5365 7.1876 18 7C18.4635 6.8124 18.4634 6.81218 18.4633 6.81194C18.4632 6.81183 18.4631 6.81156 18.463 6.81134C18.4629 6.81089 18.4626 6.81036 18.4624 6.80973C18.4619 6.80847 18.4612 6.80685 18.4604 6.80487C18.4588 6.80091 18.4565 6.79552 18.4537 6.78875C18.448 6.7752 18.4398 6.7561 18.4292 6.73183C18.4079 6.68328 18.3766 6.61399 18.3351 6.52691C18.252 6.35282 18.1276 6.10717 17.9594 5.81378C17.6235 5.22798 17.1097 4.44646 16.3964 3.66333C14.969 2.09599 12.7194 0.5 9.49998 0.5V1.5ZM18 7C17.5365 6.8124 17.5366 6.81223 17.5367 6.81208C17.5367 6.81206 17.5367 6.81193 17.5367 6.81189C17.5368 6.81181 17.5368 6.81181 17.5367 6.81191C17.5366 6.81211 17.5364 6.81266 17.536 6.81357C17.5353 6.81538 17.534 6.81859 17.532 6.82317C17.5282 6.83233 17.522 6.84692 17.5133 6.86659C17.4961 6.90594 17.4692 6.96555 17.4325 7.04253C17.359 7.19657 17.2462 7.41967 17.0919 7.68878C16.7827 8.22798 16.31 8.94646 15.6571 9.66333C14.3524 11.096 12.352 12.5 9.49998 12.5V13.5C12.7194 13.5 14.969 11.904 16.3964 10.3367C17.1097 9.55354 17.6235 8.77202 17.9594 8.18622C18.1276 7.89283 18.252 7.64718 18.3351 7.47309C18.3766 7.38601 18.4079 7.31672 18.4292 7.26817C18.4398 7.2439 18.448 7.2248 18.4537 7.21125C18.4565 7.20448 18.4588 7.19909 18.4604 7.19513C18.4612 7.19315 18.4619 7.19153 18.4624 7.19027C18.4626 7.18965 18.4629 7.18911 18.463 7.18866C18.4631 7.18844 18.4632 7.18817 18.4633 7.18806C18.4634 7.18782 18.4635 7.1876 18 7ZM9.5 8.9C8.42928 8.9 7.57143 8.04378 7.57143 7H6.57143C6.57143 8.60719 7.88819 9.9 9.5 9.9V8.9ZM11.4286 7C11.4286 8.04378 10.5707 8.9 9.5 8.9V9.9C11.1118 9.9 12.4286 8.60719 12.4286 7H11.4286ZM9.5 5.1C10.5707 5.1 11.4286 5.95622 11.4286 7H12.4286C12.4286 5.39281 11.1118 4.1 9.5 4.1V5.1ZM9.5 4.1C7.88819 4.1 6.57143 5.39281 6.57143 7H7.57143C7.57143 5.95622 8.42928 5.1 9.5 5.1V4.1Z" fill="#878787"/>
</svg>
