<svg width="22" height="22" viewBox="0 0 22 22" fill="none" xmlns="http://www.w3.org/2000/svg">
<path d="M15.6665 6.33334L7.99976 10.9939L15.6665 15.6667M20.3332 4.3316C20.3332 5.80264 19.1385 6.99653 17.6665 6.99653C16.1945 6.99653 14.9998 5.80264 14.9998 4.3316C14.9998 2.86056 16.1945 1.66667 17.6665 1.66667C19.1385 1.66667 20.3332 2.86056 20.3332 4.3316ZM20.3332 17.6562C20.3332 19.1273 19.1385 20.3212 17.6665 20.3212C16.1945 20.3212 14.9998 19.1273 14.9998 17.6562C14.9998 16.1852 16.1945 14.9913 17.6665 14.9913C19.1385 14.9913 20.3332 16.1852 20.3332 17.6562ZM6.99984 10.9939C6.99984 12.465 5.80517 13.6588 4.33317 13.6588C2.86117 13.6588 1.6665 12.465 1.6665 10.9939C1.6665 9.52287 2.86117 8.32898 4.33317 8.32898C5.80517 8.32898 6.99984 9.52287 6.99984 10.9939Z" stroke="#878787" stroke-width="2" stroke-linecap="square"/>
</svg>
